<?xml version="1.0" standalone="no"?>
<!DOCTYPE svg PUBLIC "-//W3C//DTD SVG 20010904//EN"
 "http://www.w3.org/TR/2001/REC-SVG-20010904/DTD/svg10.dtd">
<svg version="1.0" xmlns="http://www.w3.org/2000/svg"
 width="162.000000pt" height="162.000000pt" viewBox="0 0 162.000000 162.000000"
 preserveAspectRatio="xMidYMid meet">
<metadata>
Created by potrace 1.11, written by Peter Selinger 2001-2013
</metadata>
<g transform="translate(0.000000,162.000000) scale(0.100000,-0.100000)"
fill="#000000" stroke="none">
<path d="M188 1138 c-6 -13 -13 -36 -14 -53 -1 -16 -5 -73 -8 -125 -7 -114
-14 -152 -28 -161 -5 -4 -33 -9 -61 -12 -96 -12 -103 -57 -9 -57 31 0 63 -4
69 -8 7 -4 15 -35 19 -67 8 -84 8 -86 26 -120 25 -47 83 -75 147 -70 79 6 144
54 187 138 28 55 39 60 30 15 -4 -18 -10 -44 -12 -57 -3 -14 -7 -28 -10 -33
-3 -4 -2 -17 1 -28 8 -25 44 -26 51 -2 19 56 66 143 100 184 39 48 73 65 59
31 -12 -29 -14 -115 -3 -142 15 -40 48 -70 89 -81 30 -8 48 -7 92 10 29 11 64
31 77 45 31 33 44 32 75 -9 35 -46 70 -59 144 -53 57 5 62 7 123 66 35 33 66
61 69 61 3 0 21 -22 40 -50 60 -88 90 -55 38 42 l-32 62 81 76 c80 73 101 110
63 110 -20 0 -57 -26 -115 -82 -22 -21 -44 -37 -50 -35 -6 2 -25 29 -42 62
-32 58 -56 81 -74 70 -15 -10 -12 -61 5 -75 16 -13 55 -94 55 -115 0 -6 -23
-32 -51 -56 -127 -110 -182 -115 -221 -19 -15 38 -11 78 19 185 5 17 8 36 7
43 -1 6 -2 17 -3 23 0 6 -11 9 -23 7 -29 -4 -57 -59 -63 -123 -6 -52 -25 -100
-52 -130 -21 -24 -73 -58 -73 -49 0 4 -6 2 -12 -3 -7 -5 -27 -10 -44 -12 -24
-2 -37 4 -54 26 -23 29 -23 26 -6 190 4 30 0 47 -10 58 -20 20 -47 6 -116 -60
l-51 -50 8 45 c14 80 12 105 -9 105 -15 0 -34 -28 -76 -110 -92 -176 -156
-234 -245 -220 -63 9 -85 46 -81 137 1 37 6 72 11 77 6 5 36 12 67 15 76 8
110 24 99 45 -8 12 -25 15 -89 13 -90 -4 -95 0 -87 68 25 218 13 331 -27 258z"/>
<path d="M1104 1075 c-8 -33 2 -71 21 -79 21 -7 55 28 55 57 0 49 -64 68 -76
22z"/>
</g>
</svg>
